{"title":"Velozes e Furiosos 7 - Bluray 720p(2015) AVI","uid":12267539,"size":2583443912,"categoryP":"video","categoryS":"movies","magnet":"?xt=urn:btih:f131cbe25d816eab3ba31ab2dbf6a7b350a7ce34&amp;dn=Velozes+e+Furiosos+7+-+Bluray+720p%282015%29+AVI&amp;tr=udp%3A%2F%2Ftracker.openbittorrent.com%3A80&amp;tr=udp%3A%2F%2Fopen.demonii.com%3A1337&amp;tr=udp%3A%2F%2Ftracker.coppersurfer.tk%3A6969&amp;tr=udp%3A%2F%2Fexodus.desync.com%3A6969","seeders":0,"leechers":0,"uploader":"eletrom","files":2,"time":1440254605,"description":"720pVelozes.e.Furiosos.7.Versao.Estendida.2015.720p.avi\nFormat                                   : AVI\nFormat/Info                              : Audio Video Interleave\nFormat profile                           : OpenDML\nFile size                                : 2.41 GiB\nDuration                                 : 2h 19mn\nOverall bit rate                         : 2 462 Kbps\nWriting application                      : MEncoder SVN-r33883(20110719-gcc4.5.2)\nWriting library                          : MPlayer\n\nVideo\nID                                       : 0\nFormat                                   : MPEG-4 Visual\nFormat profile                           : Advanced Simple@L5\nFormat settings, BVOP                    : 2\nFormat settings, QPel                    : No\nFormat settings, GMC                     : No warppoints\nFormat settings, Matrix                  : Default (H.263)\nCodec ID                                 : XVID\nCodec ID/Hint                            : XviD\nDuration                                 : 2h 19mn\nBit rate                                 : 2 386 Kbps\nWidth                                    : 1 280 pixels\nHeight                                   : 536 pixels\nDisplay aspect ratio                     : 2.40:1\nFrame rate                               : 23.976 fps\nColor space                              : YUV\nChroma subsampling                       : 4:2:0\nBit depth                                : 8 bits\nScan type                                : Progressive\nCompression mode                         : Lossy\nBits/(Pixel*Frame)                       : 0.145\nStream size                              : 2.33 GiB (97%)\nWriting library                          : XviD 1.2.1 (UTC 2008-12-04)\n\nAudio\nID                                       : 1\nFormat                                   : MPEG Audio\nFormat version                           : Version 2\nFormat profile                           : Layer 3\nMode                                     : Joint stereo\nMode extension                           : MS Stereo\nCodec ID                                 : 55\nCodec ID/Hint                            : MP3\nDuration                                 : 2h 19mn\nBit rate mode                            : Constant\nBit rate                                 : 64.0 Kbps\nChannel count                            : 2 channels\nSampling rate                            : 22.05 KHz\nCompression mode                         : Lossy\nDelay relative to video                  : 42ms\nStream size                              : 64.0 MiB (3%)\nAlignment                                : Aligned on interleaves\nInterleave, duration                     : 26 ms (0.63 video frame)\nInterleave, preload duration             : 522 ms\nWriting library                          : LAME3.98.4","torrent":{"xt":"urn:btih:f131cbe25d816eab3ba31ab2dbf6a7b350a7ce34","amp;dn":"Velozes+e+Furiosos+7+-+Bluray+720p%282015%29+AVI","amp;tr":["udp%3A%2F%2Ftracker.openbittorrent.com%3A80","udp%3A%2F%2Fopen.demonii.com%3A1337","udp%3A%2F%2Ftracker.coppersurfer.tk%3A6969","udp%3A%2F%2Fexodus.desync.com%3A6969"],"infoHash":"f131cbe25d816eab3ba31ab2dbf6a7b350a7ce34","infoHashBuffer":{"type":"Buffer","data":[241,49,203,226,93,129,110,171,59,163,26,178,219,246,167,179,80,167,206,52]},"announce":[],"urlList":[]}}